<svg width="138" height="138" viewBox="0 0 138 138" fill="none" xmlns="http://www.w3.org/2000/svg">
<path d="M137.997 103.442C137.997 96.6073 135.971 89.926 132.173 84.2431C128.376 78.5601 122.979 74.1308 116.665 71.5153C110.35 68.8997 103.402 68.2154 96.6983 69.5488C89.9948 70.8822 83.8373 74.1734 79.0044 79.0064C74.1715 83.8393 70.8802 89.9968 69.5468 96.7003C68.2134 103.404 68.8978 110.352 71.5133 116.667C74.1289 122.981 78.5582 128.378 84.2411 132.175C89.924 135.973 96.6053 137.999 103.44 137.999L103.44 103.242C100.023 103.242 96.6821 119.707 93.8406 117.809C90.9991 115.91 88.7845 113.212 87.4767 110.054C86.1689 106.897 85.8268 103.423 86.4935 100.071C87.1602 96.7194 88.8058 93.6407 91.2223 91.2242C93.6387 88.8077 96.7175 87.1621 100.069 86.4954C103.421 85.8287 106.895 86.1709 110.052 87.4787C113.21 88.7865 115.908 91.0011 117.807 93.8426C119.705 96.684 120.719 100.025 120.719 103.442H137.997Z" fill="#02001A"/>
<path d="M103.44 137.999C96.6053 137.999 89.924 135.973 84.2411 132.175C78.5582 128.378 74.1289 122.981 71.5133 116.667C68.8978 110.352 68.2134 103.404 69.5468 96.7003C70.8802 89.9968 74.1715 83.8393 79.0044 79.0064C83.8373 74.1734 89.9949 70.8822 96.6983 69.5488C103.402 68.2154 110.35 68.8997 116.665 71.5153C122.979 74.1309 128.376 78.5601 132.173 84.2431C135.971 89.926 137.997 96.6073 137.997 103.442L103.24 103.442C103.24 100.025 119.705 96.684 117.807 93.8426C115.908 91.0011 113.21 88.7865 110.052 87.4787C106.895 86.1709 103.421 85.8287 100.069 86.4954C96.7175 87.1621 93.6387 88.8078 91.2223 91.2242C88.8058 93.6407 87.1602 96.7194 86.4935 100.071C85.8268 103.423 86.1689 106.897 87.4767 110.054C88.7845 113.212 90.9991 115.91 93.8406 117.809C96.6821 119.707 100.023 120.721 103.44 120.721L103.44 137.999Z" fill="#02001A"/>
<path d="M0.00261322 103.442C0.00261382 96.6073 2.02937 89.926 5.82657 84.2431C9.62377 78.5601 15.0209 74.1308 21.3354 71.5153C27.6499 68.8997 34.5982 68.2154 41.3017 69.5488C48.0052 70.8822 54.1627 74.1734 58.9956 79.0064C63.8285 83.8393 67.1198 89.9968 68.4532 96.7003C69.7866 103.404 69.1022 110.352 66.4867 116.667C63.8711 122.981 59.4418 128.378 53.7589 132.175C48.076 135.973 41.3947 137.999 34.5599 137.999L34.5599 103.242C37.9773 103.242 41.3179 119.707 44.1594 117.809C47.0009 115.91 49.2155 113.212 50.5233 110.054C51.8311 106.897 52.1732 103.423 51.5065 100.071C50.8398 96.7194 49.1942 93.6407 46.7777 91.2242C44.3613 88.8077 41.2825 87.1621 37.9308 86.4954C34.5791 85.8287 31.1049 86.1709 27.9476 87.4787C24.7904 88.7864 22.0918 91.0011 20.1932 93.8426C18.2946 96.684 17.2813 100.025 17.2813 103.442L0.00261322 103.442Z" fill="#8B1A2B"/>
<path d="M34.5599 137.999C41.3947 137.999 48.076 135.973 53.7589 132.175C59.4418 128.378 63.8711 122.981 66.4867 116.667C69.1022 110.352 69.7866 103.404 68.4532 96.7003C67.1198 89.9968 63.8285 83.8393 58.9956 79.0064C54.1627 74.1734 48.0051 70.8822 41.3017 69.5488C34.5982 68.2154 27.6499 68.8997 21.3354 71.5153C15.0209 74.1309 9.62376 78.5601 5.82656 84.2431C2.02936 89.926 0.00260592 96.6073 0.00260749 103.442L34.7605 103.442C34.7605 100.025 18.2946 96.684 20.1932 93.8426C22.0918 91.0011 24.7904 88.7865 27.9476 87.4787C31.1049 86.1709 34.5791 85.8287 37.9308 86.4954C41.2825 87.1621 44.3613 88.8078 46.7777 91.2242C49.1942 93.6407 50.8398 96.7194 51.5065 100.071C52.1732 103.423 51.8311 106.897 50.5233 110.054C49.2155 113.212 47.0009 115.91 44.1594 117.809C41.3179 119.707 37.9773 120.721 34.5599 120.721L34.5599 137.999Z" fill="#8B1A2B"/>
<path d="M0.00261624 34.5579C0.00261624 41.3927 2.02937 48.074 5.82657 53.7569C9.62377 59.4399 15.0209 63.8692 21.3354 66.4847C27.6499 69.1003 34.5982 69.7846 41.3017 68.4512C48.0052 67.1178 54.1627 63.8266 58.9956 58.9936C63.8285 54.1607 67.1198 48.0032 68.4532 41.2997C69.7866 34.5963 69.1022 27.648 66.4867 21.3334C63.8711 15.0189 59.4418 9.62181 53.7589 5.8246C48.076 2.0274 41.3947 0.000646733 34.5599 0.000646814L34.5599 34.7585C37.9773 34.7585 41.3179 18.2927 44.1594 20.1913C47.0009 22.0899 49.2155 24.7884 50.5233 27.9457C51.8311 31.1029 52.1732 34.5771 51.5065 37.9288C50.8398 41.2806 49.1942 44.3593 46.7777 46.7758C44.3613 49.1923 41.2825 50.8379 37.9308 51.5046C34.5791 52.1713 31.1049 51.8291 27.9477 50.5213C24.7904 49.2135 22.0918 46.9989 20.1932 44.1574C18.2946 41.316 17.2813 37.9753 17.2813 34.5579H0.00261624Z" fill="#02001A"/>
<path d="M34.5599 0.000655564C41.3947 0.000657058 48.076 2.02741 53.7589 5.82461C59.4418 9.62182 63.8711 15.0189 66.4867 21.3334C69.1022 27.648 69.7866 34.5963 68.4532 41.2997C67.1198 48.0032 63.8285 54.1607 58.9956 58.9936C54.1627 63.8266 48.0051 67.1178 41.3017 68.4512C34.5982 69.7846 27.6499 69.1003 21.3354 66.4847C15.0209 63.8691 9.62376 59.4399 5.82656 53.7569C2.02936 48.074 0.00260592 41.3927 0.00260749 34.5579L34.7605 34.5579C34.7605 37.9753 18.2946 41.316 20.1932 44.1574C22.0918 46.9989 24.7904 49.2135 27.9476 50.5213C31.1049 51.8291 34.5791 52.1713 37.9308 51.5046C41.2825 50.8379 44.3613 49.1922 46.7777 46.7758C49.1942 44.3593 50.8398 41.2806 51.5065 37.9288C52.1732 34.5771 51.8311 31.103 50.5233 27.9457C49.2155 24.7884 47.0009 22.0899 44.1594 20.1913C41.3179 18.2927 37.9773 17.2793 34.5599 17.2793L34.5599 0.000655564Z" fill="#02001A"/>
<path d="M137.997 34.5579C137.997 41.3927 135.971 48.074 132.173 53.7569C128.376 59.4399 122.979 63.8692 116.665 66.4847C110.35 69.1003 103.402 69.7846 96.6983 68.4512C89.9948 67.1178 83.8373 63.8266 79.0044 58.9936C74.1715 54.1607 70.8802 48.0032 69.5468 41.2997C68.2134 34.5963 68.8978 27.648 71.5133 21.3334C74.1289 15.0189 78.5582 9.62181 84.2411 5.8246C89.924 2.0274 96.6053 0.000649157 103.44 0.000649836L103.44 34.7585C100.023 34.7585 96.6821 18.2927 93.8406 20.1913C90.9991 22.0899 88.7845 24.7884 87.4767 27.9457C86.1689 31.103 85.8268 34.5771 86.4935 37.9288C87.1602 41.2806 88.8058 44.3593 91.2223 46.7758C93.6387 49.1923 96.7175 50.8379 100.069 51.5046C103.421 52.1713 106.895 51.8291 110.052 50.5213C113.21 49.2136 115.908 46.9989 117.807 44.1574C119.705 41.316 120.719 37.9753 120.719 34.5579L137.997 34.5579Z" fill="#8B1A2B"/>
<path d="M103.44 0.000655564C96.6053 0.000657058 89.924 2.02741 84.2411 5.82461C78.5582 9.62182 74.1289 15.0189 71.5133 21.3334C68.8978 27.648 68.2134 34.5963 69.5468 41.2997C70.8802 48.0032 74.1715 54.1607 79.0044 58.9936C83.8373 63.8266 89.9949 67.1178 96.6983 68.4512C103.402 69.7846 110.35 69.1003 116.665 66.4847C122.979 63.8691 128.376 59.4399 132.173 53.7569C135.971 48.074 137.997 41.3927 137.997 34.5579L103.24 34.5579C103.24 37.9753 119.705 41.316 117.807 44.1574C115.908 46.9989 113.21 49.2135 110.052 50.5213C106.895 51.8291 103.421 52.1713 100.069 51.5046C96.7175 50.8379 93.6387 49.1922 91.2223 46.7758C88.8058 44.3593 87.1602 41.2806 86.4935 37.9288C85.8268 34.5771 86.1689 31.103 87.4767 27.9457C88.7845 24.7884 90.9991 22.0899 93.8406 20.1913C96.6821 18.2927 100.023 17.2793 103.44 17.2793L103.44 0.000655564Z" fill="#8B1A2B"/>
</svg>
